<svg viewBox="-57 0 511 512" xmlns="http://www.w3.org/2000/svg"><path d="m109.792969 127.441406c7.65625-3.238281 15.441406-6.027344 23.339843-8.390625.769532-35.445312 29.820313-64.050781 65.449219-64.050781 35.628907 0 64.683594 28.605469 65.453125 64.050781 7.894532 2.367188 15.679688 5.152344 23.335938 8.390625 10.300781 4.359375 20.199218 9.429688 29.664062 15.1875 1.347656-7.253906 2.035156-14.644531 2.035156-22.140625 0-66.4375-54.050781-120.488281-120.488281-120.488281s-120.488281 54.050781-120.488281 120.488281c0 7.496094.6875 14.886719 2.035156 22.140625 9.464844-5.757812 19.363282-10.828125 29.664063-15.1875zm0 0"/><path d="m396.664062 337.589844c0-109.398438-88.683593-198.082032-198.082031-198.082032-109.398437 0-198.082031 88.683594-198.082031 198.082032 0 75.390625 42.121094 140.941406 104.113281 174.410156h187.9375c61.988281-33.46875 104.113281-99.019531 104.113281-174.410156zm0 0"/></svg>